<?xml version="1.0" encoding="UTF-8"?> <svg xmlns="http://www.w3.org/2000/svg" width="136" height="136" viewBox="0 0 136 136" fill="none"> <circle cx="68" cy="68" r="68" fill="url(#paint0_linear_404_12)" fill-opacity="0.05"></circle> <path d="M36.1338 86.19C40.8626 81.3305 45.1493 76.097 49.7119 71.0876C52.5792 67.9337 55.4942 64.8222 58.3403 61.649C61.1863 58.4758 63.8733 55.172 66.8007 52.0746V49.9915H67.6651V52.0746C67.9515 52.3815 68.1619 52.6655 68.4412 52.9671C75.1904 59.9098 81.2326 67.4786 87.623 74.7423C87.6707 71.3751 87.7432 67.0465 87.8245 62.7214L86.0868 60.9576L86.4722 60.5783L87.8387 61.963C87.8634 60.6489 87.8882 59.3401 87.9147 58.063C87.7185 58.1364 87.5134 58.1832 87.3048 58.2024C85.8075 58.347 84.2572 57.2763 84.3279 56.696C84.3686 56.3432 84.9696 56.442 86.4934 55.6006C87.303 55.1508 87.554 54.8951 87.9801 54.7381C87.9801 54.664 87.9801 54.5934 87.9801 54.5194L86.7427 53.461L86.9848 53.2017L87.9978 54.0678C88.0137 53.2476 88.0313 52.4574 88.0455 51.7077C87.9512 51.7736 87.8522 51.8388 87.7485 51.9035C87.0414 52.3498 85.9701 52.9142 85.4663 51.93C85.4316 51.8365 85.4223 51.7355 85.4394 51.6373C85.4565 51.5391 85.4993 51.4471 85.5636 51.3708C85.7598 51.0851 86.0073 50.8416 86.0939 50.4889C86.1359 50.2814 86.1206 50.0664 86.0496 49.867C85.9786 49.6675 85.8546 49.491 85.6908 49.3565C84.7769 48.5521 83.0976 48.8449 82.0157 49.1271C80.9338 49.4094 79.8166 49.6422 78.7153 49.8944C78.5542 49.9149 78.4025 49.9817 78.2787 50.0867C78.7613 50.6952 80.7076 50.6511 79.7176 51.8859C79.2545 52.4644 78.3529 52.8754 77.6069 53.0112C75.62 53.364 72.9914 53.4152 71.3597 52.1452C70.8923 51.8078 70.5326 51.3429 70.3238 50.8064C69.8677 49.5046 71.0468 48.4551 71.959 47.6226C72.1813 47.4475 72.3523 47.216 72.454 46.9523C72.6449 46.312 71.8123 46.162 71.8282 45.6029C71.86 44.5887 73.8593 44.2394 74.6407 44.0277C75.8056 43.7138 77.0554 43.3875 77.9994 42.6396C78.3359 42.3975 78.5688 42.038 78.6517 41.6324C78.7613 40.8669 78.2981 40.2213 78.8125 39.5157C79.1661 39.0201 79.7565 38.6673 80.3169 38.3992C81.8036 37.6936 83.6438 37.4449 85.2666 37.8577C86.3361 38.1311 87.1156 38.7925 88.0579 39.2846C88.1887 39.3552 88.3213 39.4152 88.4556 39.4734C88.4662 39.2829 88.475 39.0959 88.4856 38.9107L87.8475 38.0905L88.1303 37.87L88.5192 38.3674C88.5546 37.6936 88.5917 37.0604 88.62 36.4801C86.5694 36.4801 86.2176 37.5102 84.2873 37.2579C83.3132 37.1292 81.77 36.6635 81.671 35.7957C81.6003 35.1642 82.2278 34.6086 82.394 34.4728C82.7104 34.2099 83.1276 34.0141 85.2807 33.8783C86.7303 33.7848 87.0838 33.8395 87.8068 33.6032C88.4998 33.3791 88.7172 33.1534 89.2051 32.9188C91.6375 31.7546 94.8619 33.2433 94.8442 33.8342C94.8442 33.9542 94.694 34.06 94.7081 34.3122C94.7096 34.4091 94.7326 34.5044 94.7754 34.5913C94.8182 34.6782 94.8797 34.7546 94.9556 34.815C95.3675 35.0672 96.0163 34.2593 96.3786 34.4833C96.5837 34.6139 96.6226 35.0495 96.467 35.293C96.4352 35.3459 96.3451 35.4694 95.5213 35.704C95.1677 35.8027 95.0192 35.7904 94.8884 35.9333C94.6356 36.2155 94.9061 36.6018 94.7541 36.891C94.4889 37.392 93.179 37.1768 92.2792 37.0304C90.8474 36.7958 89.8751 36.637 89.3271 36.5541C89.3271 36.8081 89.3271 37.0604 89.3271 37.3144L89.7408 36.9775L89.9175 37.1839L89.3342 37.6601C89.3342 38.3657 89.3342 39.0712 89.3342 39.7768C90.0215 39.9463 90.7179 40.0764 91.4201 40.1666C92.235 40.2901 93.8172 40.2901 94.3846 40.9233C95.0528 41.6712 94.0311 42.6872 94.8301 43.3927C95.3268 43.8196 96.1029 43.6873 96.6986 43.5585C97.8264 43.3151 99.7497 43.4686 99.5783 44.9432C99.5378 45.1278 99.5077 45.3144 99.4881 45.5024C99.4881 45.9821 100.117 46.1444 100.255 46.5783C100.565 47.5414 98.5424 46.9311 98.0757 47.1904C97.951 47.2609 97.8442 47.3589 97.7633 47.4769C97.6825 47.5949 97.6297 47.7298 97.609 47.8713C97.5973 47.943 97.6005 48.0163 97.6185 48.0867C97.6364 48.1571 97.6687 48.2231 97.7133 48.2805C97.8525 48.398 98.0212 48.4754 98.2012 48.5045C99.2795 48.8202 99.7586 49.517 99.0691 50.4448C98.7845 50.8258 98.3444 51.1503 97.8742 51.168C97.6588 51.172 97.4473 51.1104 97.2678 50.9916C96.7711 50.667 96.5024 49.9967 95.8306 49.9332C95.097 49.868 95.0051 51.4925 94.2733 51.8047C93.1313 52.2916 91.7047 51.9035 90.6971 51.3197C90.1668 51.011 89.7584 50.9369 89.3943 51.0057C89.3943 51.4761 89.3943 51.9405 89.3943 52.3992L90.2781 51.5013L90.5362 51.7536L89.3872 52.9019L89.3978 54.5723C89.5073 54.548 89.6096 54.4984 89.6966 54.4276C90.211 54.0166 89.9635 53.3146 90.3718 53.1047C90.7254 52.9283 91.0789 53.3711 91.9504 53.7432C93.2886 54.313 93.8331 53.8438 94.3864 54.3835C94.975 54.9568 95.0776 56.1862 94.5632 56.8036C94.1972 57.2428 93.4159 57.264 91.855 57.3063C90.6352 57.3381 90.6458 57.2199 90.0077 57.3063C89.8066 57.3321 89.6076 57.3715 89.412 57.4245C89.412 57.5144 89.412 57.6009 89.412 57.6926C89.412 58.2553 89.4119 58.8162 89.4243 59.3789L90.6335 58.3682L90.987 58.7827L89.4349 60.0774C89.4526 62.7067 89.4721 65.3373 89.4933 67.969L90.3329 67.2635L90.6865 67.6744L89.5074 68.6605C89.5298 71.4168 89.554 74.1726 89.5799 76.9278C92.6222 80.2686 95.8041 83.4754 99.0603 86.6186C100.003 87.5305 101.084 88.603 102.172 89.686C102.172 89.5396 102.172 89.395 102.172 89.2486C102.2 85.9148 102.226 82.5817 102.251 79.2491L100.596 77.8644L100.941 77.4517L102.26 78.5506C102.26 77.9415 102.263 77.3323 102.271 76.7232C101.863 76.5198 101.422 76.3885 100.969 76.3351C100.331 76.2469 100.34 76.3686 99.1204 76.3351C97.5595 76.2928 96.7781 76.2716 96.414 75.8324C95.9031 75.2151 96.0074 73.9856 96.5908 73.4124C97.1441 72.8709 97.6885 73.3418 99.0267 72.7721C99.8894 72.3999 100.243 71.9519 100.596 72.1283C101.003 72.3382 100.757 73.0402 101.272 73.4512C101.562 73.684 101.816 73.6046 102.276 73.6364C102.276 72.7544 102.286 71.8619 102.292 70.9747L101.385 70.0575L101.643 69.8052L102.294 70.4649C102.294 69.9087 102.297 69.3525 102.304 68.7963C101.76 68.4894 101.243 68.4047 100.416 68.8827C99.4086 69.4666 97.9838 69.8546 96.8418 69.3678C96.1117 69.0556 96.0198 67.4275 95.2844 67.4963C94.6127 67.558 94.344 68.2283 93.8472 68.5546C93.6673 68.6738 93.4551 68.7354 93.2391 68.731C92.7689 68.7187 92.3305 68.3888 92.0459 68.0078C91.3582 67.0906 91.8373 66.3921 92.9121 66.0675C94.2202 65.683 93.2161 64.7287 92.3252 64.6829C91.9416 64.6652 90.6105 64.9175 90.858 64.1396C90.9959 63.7057 91.6269 63.5434 91.6269 63.0636C91.6074 62.8757 91.5773 62.689 91.5368 62.5045C91.36 61.0334 93.2868 60.8764 94.4182 61.1198C94.5808 61.1569 94.7594 61.1921 94.9397 61.2151C95.1541 61.0106 95.3333 60.7722 95.47 60.5095C95.9668 59.587 95.5832 59.2572 96.0622 58.4158C96.6155 57.4421 97.6284 57.0047 98.2913 56.7136C99.0409 56.3873 99.1239 56.5196 100.326 56.1227C101.836 55.6235 101.882 55.3572 102.624 55.2073C103.565 55.0294 104.539 55.1696 105.391 55.6059C105.708 55.4702 106.041 55.3731 106.382 55.3166C107.885 55.0844 109.422 55.3113 110.793 55.9675C111.353 56.2356 111.942 56.5884 112.301 57.0841C112.812 57.7896 112.348 58.4299 112.462 59.2007C112.542 59.6063 112.774 59.9662 113.11 60.2079C113.639 60.6074 114.231 60.9162 114.862 61.1216C111.118 38.8437 91.6888 21.8574 68.2838 21.8574C42.1954 21.8574 21.0479 42.9588 21.0479 68.9885C21.0363 77.9786 23.6134 86.7827 28.4724 94.3533C30.7334 91.9949 33.9772 88.409 36.1338 86.19ZM47.7409 58.8215C47.704 59.0913 47.5788 59.3413 47.3847 59.5327C47.1906 59.7241 46.9386 59.8461 46.6678 59.8798C46.5616 59.8962 46.4529 59.8836 46.3533 59.8433C46.2536 59.803 46.1668 59.7366 46.1019 59.6511C46.037 59.5656 45.9966 59.4641 45.9848 59.3575C45.973 59.2509 45.9903 59.1431 46.035 59.0455C46.0878 58.9413 46.1625 58.8497 46.254 58.7769C46.3455 58.7042 46.4517 58.652 46.5653 58.6239C46.8368 58.5302 47.1313 58.5265 47.405 58.6133C47.4987 57.9307 47.5941 57.2428 47.6861 56.5584L49.4308 57.0294L47.9265 57.1193C47.8717 57.6855 47.808 58.2535 47.7409 58.8215ZM53.0777 65.212C52.9136 65.3724 52.7007 65.4739 52.4726 65.5004C52.2444 65.5269 52.0139 65.4769 51.8173 65.3585C51.3506 65.0568 51.4761 64.4483 51.7254 64.0355C52.0665 63.4676 52.7383 63.3935 52.8249 63.3829C52.6216 62.5521 52.4183 61.7178 52.2221 60.8852C51.5451 61.0457 50.8698 61.208 50.191 61.3791C50.391 61.9405 50.5604 62.5122 50.6983 63.0919C50.8981 63.9297 51.2428 65.0321 50.3448 65.5966C49.9028 65.877 49.3159 65.9123 48.9659 65.4643C48.2588 64.5594 49.4962 63.8027 50.2776 63.7498C50.0778 62.7973 49.8781 61.8448 49.6783 60.8852C50.6188 60.693 51.5627 60.4919 52.5067 60.2926C52.7507 61.1698 52.994 62.0447 53.2368 62.9172C53.3393 63.27 53.486 63.6069 53.4949 63.9756C53.5268 64.4258 53.3787 64.8704 53.083 65.212H53.0777ZM54.2815 58.4652C54.2097 58.5594 54.1136 58.6326 54.0036 58.6769C53.8935 58.7213 53.7735 58.7351 53.6562 58.7171C53.5389 58.699 53.4286 58.6497 53.3371 58.5743C53.2455 58.4989 53.1761 58.4003 53.136 58.2888C53.0967 58.1654 53.0845 58.0351 53.1004 57.9066C53.1162 57.7781 53.1597 57.6546 53.2279 57.5444C53.3686 57.2615 53.5975 57.0319 53.8802 56.89C53.4277 56.2762 52.9663 55.6553 52.5085 55.0468C53.0883 54.724 53.6699 54.4012 54.2462 54.0749C53.8785 54.4858 53.5055 54.8933 53.1343 55.3096C53.5232 55.8035 53.9174 56.3044 54.3116 56.8001C54.4919 57.0418 54.5868 57.3364 54.5814 57.6377C54.576 57.9391 54.4705 58.2301 54.2815 58.4652V58.4652ZM38.9021 40.1207C38.7933 41.4469 38.9553 42.7812 39.3782 44.0431C39.8012 45.305 40.4763 46.4681 41.3628 47.462C43.4841 49.8098 46.8428 51.1027 49.9788 50.54C50.9257 50.3892 51.8449 50.0991 52.7065 49.6792C54.4309 48.8201 55.85 47.454 56.7723 45.7652C58.1865 43.2287 58.2713 40.0978 57.1347 37.4449C56.3533 35.6516 55.0406 34.1399 53.3729 33.1128C51.6825 32.0559 49.7087 31.5401 47.7161 31.6347C49.7457 31.3649 51.8086 31.7486 53.6045 32.73C54.5106 33.226 55.3351 33.8578 56.0493 34.6033C56.7648 35.3541 57.354 36.2154 57.794 37.1539C58.4717 38.5709 58.8046 40.1275 58.7656 41.6971C58.7266 43.2667 58.3168 44.805 57.5695 46.1867C56.5787 48.0523 55.0168 49.5533 53.1113 50.4712C52.1672 50.9277 51.1584 51.2365 50.1202 51.3867C49.0841 51.5405 48.0298 51.5257 46.9984 51.3426C43.9738 50.9492 41.2462 48.8379 39.8638 46.1673C38.9035 44.3063 38.5664 42.187 38.9021 40.1207V40.1207Z" fill="#7CAEB1"></path> <path d="M113.501 70.5939C112.753 70.458 111.852 70.0471 111.389 69.4685C110.397 68.2338 110.181 66.9991 109.091 66.7098C108 66.4205 106.331 66.1348 105.417 66.9391C105.254 67.0739 105.13 67.2504 105.059 67.4499C104.989 67.6493 104.974 67.8642 105.016 68.0715C105.104 68.4102 105.35 68.6624 105.546 68.9535C105.611 69.0296 105.654 69.1215 105.671 69.2197C105.689 69.3179 105.68 69.419 105.645 69.5126C105.182 70.4157 104.231 70.0136 103.538 69.5955C103.559 70.5251 103.584 71.6275 103.611 72.8587L104.684 71.9432L104.919 72.2166L103.623 73.3208C103.623 73.589 103.634 73.85 103.639 74.1375C103.847 74.2751 104.104 74.4409 104.482 74.6508C106.006 75.4922 106.603 75.3969 106.646 75.7462C106.718 76.323 105.191 77.3795 103.706 77.2543C103.733 78.5931 103.761 79.9954 103.789 81.4206L105.465 79.7238L105.849 80.103L103.805 82.172C103.863 85.1248 103.92 88.1499 103.969 90.9103C103.969 91.1114 103.978 91.309 103.98 91.503C105.468 92.9864 106.808 94.3164 107.641 95.0572C112.45 87.854 115.165 79.462 115.485 70.8126C114.819 70.7893 114.156 70.7162 113.501 70.5939Z" fill="#7CAEB1"></path> <path d="M107.748 94.9901L107.725 94.9707L107.642 95.0554L107.573 95.1542L107.662 95.073L107.579 95.1594L107.748 94.9901Z" fill="#7CAEB1"></path> <path d="M105.463 96.7205C106 96.5933 106.519 96.4007 107.008 96.1472L107.148 96.2742L107.008 96.1472L106.759 95.9179L104.328 93.6795L103.872 93.2597L102.529 92.025L100.185 89.8695L100.176 89.8607C99.9425 89.6155 98.1129 87.9204 96.0888 86.1001L95.8962 85.9237L95.8855 85.9149L94.2946 84.4861C93.8526 84.0945 93.4231 83.71 93.0183 83.3537C92.6135 82.9974 92.1644 82.5917 91.742 82.2054C90.151 80.7502 88.6007 79.2403 87.0804 77.6987C86.5943 77.2136 86.117 76.7232 85.6415 76.2294C85.5319 76.1188 85.424 76.0077 85.318 75.896L84.7541 75.3051C84.549 75.0864 84.3422 74.8712 84.1353 74.6524C83.9285 74.4337 83.7323 74.2291 83.5325 74.0139C83.4088 73.8851 83.2886 73.7546 83.1666 73.6259C82.1307 72.5217 81.1048 71.4134 80.089 70.3009C79.594 69.7629 79.0955 69.2179 78.6041 68.6764C78.0472 68.059 77.356 67.297 76.6171 66.4768L75.8764 65.6601C75.7191 65.4837 75.5618 65.3074 75.4044 65.131C75.1923 64.8981 74.9802 64.6635 74.7716 64.4254L73.2036 62.6968L73.1081 62.5892L71.4624 60.7759C70.7341 59.9751 70.2656 59.4618 70.2585 59.4618C70.0535 59.2025 69.8484 58.9432 69.6487 58.684C69.3623 58.3606 69.0624 58.0201 68.7489 57.6627C68.3529 57.2076 67.964 56.7701 67.5945 56.3486C67.4496 56.1863 67.3064 56.024 67.1685 55.8653L67.1031 55.8018C67.085 55.8241 67.0655 55.8453 67.0448 55.8653C66.9086 56.0222 66.7672 56.181 66.6258 56.345L65.4662 57.6662C58.282 65.8418 58.4995 65.4767 55.611 68.6693C53.8061 70.6643 52.0578 72.5393 50.4209 74.2467L50.214 74.4672C48.7804 75.963 47.4387 77.3318 46.226 78.5365L45.9149 78.8487C43.8749 80.8754 42.238 82.4188 41.2021 83.3361C39.452 84.8865 37.8769 86.6875 36.4451 88.2132L36.4362 88.222L34.0268 90.5416L34.0144 90.5539L29.1231 95.2635V95.2723L28.9463 95.4487L29.1231 95.2723L29.1938 95.3058C29.4427 95.432 29.7003 95.5405 29.9645 95.6304C29.9645 95.6304 29.9645 95.6304 29.9822 95.6304L30.0264 95.6463L30.364 95.7538C31.0433 95.9557 31.7429 96.0822 32.45 96.1313C33.1668 96.1853 33.8873 96.1634 34.5995 96.0661C35.3307 95.9691 36.043 95.7622 36.712 95.4522L37.663 95.0306C37.9487 94.9029 38.2443 94.7985 38.5469 94.7184H38.5734C39.5723 94.4655 40.6067 94.3814 41.6334 94.4697C42.684 94.5615 43.7098 94.8387 44.6633 95.2882C45.724 95.7856 46.6255 96.4294 47.7728 96.7328C48.379 96.8913 48.9975 96.9981 49.6219 97.0521C51.5204 97.2189 53.4278 96.8523 55.1284 95.9937C55.5752 95.7512 56.0447 95.5527 56.5302 95.4011C57.0094 95.2606 57.5015 95.169 57.9992 95.1277C59.0086 95.0342 60.0266 95.105 61.0132 95.3376C62.7191 95.7415 64.0679 96.8933 65.7861 97.2602C66.4116 97.3915 67.0476 97.4664 67.6865 97.4842C69.1219 97.5266 70.6368 97.329 71.9591 96.7469C73.84 95.9179 75.408 95.1506 77.5293 95.3164C78.4311 95.376 79.3142 95.6002 80.1349 95.9779C81.383 96.5582 82.5196 97.1473 83.9002 97.3625C85.1424 97.5444 86.4064 97.5158 87.639 97.2778C88.8764 97.0362 89.9371 96.4912 91.0384 95.8879C91.9608 95.4199 92.9686 95.1432 94.0011 95.0747C95.2284 94.9518 96.4678 95.0932 97.6356 95.4893C99.1912 96.0484 100.524 96.821 102.207 96.9656C102.384 96.9833 102.571 96.9868 102.751 96.9868H103.296C103.473 96.9893 103.65 96.9822 103.826 96.9656C104.003 96.9568 104.18 96.9427 104.357 96.9215C104.714 96.8773 105.068 96.8113 105.417 96.724V96.724H105.44L105.463 96.7205ZM29.1885 95.2952L29.1178 95.2723V95.2635L29.3122 95.3323C29.2751 95.3199 29.2309 95.3093 29.1885 95.2952ZM34.0286 90.5327L36.4362 88.215C35.6889 89.0449 34.8844 89.8217 34.0286 90.5398V90.5327ZM67.7678 95.1118C66.778 95.1001 65.7997 94.8983 64.8863 94.5174L64.8651 94.5068L65.0295 93.967L65.7366 91.6863C66.2816 91.7623 66.8305 91.8065 67.3806 91.8186C67.4796 91.8186 67.5804 91.8186 67.6723 91.8186C68.0011 91.8186 68.2733 91.8045 68.2893 91.7992C68.3052 91.7939 68.3458 91.7992 68.3759 91.7992L68.634 93.9653L68.7666 95.0871C68.4343 95.1131 68.1009 95.1213 67.7678 95.1118V95.1118ZM87.3367 95.4311C86.3123 95.5727 85.2717 95.547 84.2555 95.3552C82.5727 95.0254 81.2504 93.9071 79.6258 93.4237C79.0113 93.2479 78.3815 93.1298 77.7449 93.071C76.4725 92.941 75.1872 93.0323 73.946 93.3408C72.7811 93.6284 71.8248 94.3251 70.7164 94.7114C70.3648 94.8314 70.0042 94.9234 69.638 94.9866L69.5196 93.9723L69.2438 91.7092C69.682 91.648 70.1159 91.5596 70.5431 91.4447C71.2361 91.2559 71.9344 91.0231 72.6096 90.7726C74.0238 90.2435 74.7627 89.9418 75.3567 89.7002C75.636 89.5855 75.8782 89.4815 76.1593 89.3739C76.3785 89.5203 76.603 89.6596 76.8292 89.7919C78.5227 90.7903 80.3188 91.6087 82.0034 90.8291C82.453 90.6178 82.8001 90.2372 82.9686 89.7707C83.0307 89.589 83.0543 89.3964 83.0378 89.2051C83.0214 89.0138 82.9653 88.828 82.8732 88.6595C82.4153 87.8146 81.1761 87.6823 80.6617 87.6647C79.5799 87.6312 78.5011 87.7974 77.4798 88.155C76.9671 88.3314 76.58 88.4672 76.2423 88.5925C74.902 87.6886 73.6638 86.6424 72.5495 85.4721C72.5495 85.4721 72.5319 85.4563 72.5283 85.4439C73.6221 85.1941 74.6609 84.747 75.5936 84.1245C76.807 83.3006 77.8526 82.2544 78.6748 81.0412C79.5045 79.8294 80.1591 78.507 80.6193 77.1131L80.7024 76.8626L80.4372 76.8414C79.4148 76.7699 78.3893 76.7505 77.3649 76.7832C76.8522 76.8009 76.336 76.8397 75.8199 76.9085C75.3037 76.9772 74.8069 77.0954 74.3049 77.2066C73.2935 77.4251 72.3059 77.7417 71.3563 78.152C70.4641 78.555 69.5926 79.0024 68.7453 79.4926C68.3688 78.6529 68.01 77.7957 67.6387 76.9243C67.3724 76.2799 67.0978 75.6332 66.815 74.9841C65.8869 72.8674 64.7237 71.5621 63.3466 71.1194C62.7139 70.9249 62.0423 70.8923 61.3936 71.0245C60.7449 71.1567 60.14 71.4496 59.6344 71.8761C59.4399 71.6997 59.2437 71.5233 59.0528 71.3222C58.7699 71.0365 58.4995 70.7578 58.2467 70.4808C58.2997 70.8089 58.3421 71.1529 58.3793 71.5092C58.3987 71.742 58.4129 71.9696 58.427 72.1953L57.757 72.3576C57.2886 72.4687 56.813 72.5781 56.3428 72.6857C56.6787 72.9053 57.027 73.1055 57.3858 73.2854C57.7222 73.4658 58.0728 73.6186 58.4341 73.7423C58.3722 73.7193 58.3315 75.1305 58.3421 75.2451C58.3916 75.7884 58.5525 76.3034 58.6409 76.845C58.9821 78.9334 58.3368 80.9231 58.4464 83.0027C58.473 83.5142 58.6798 86.1777 60.1806 88.372C61.5082 90.3122 63.3378 91.1501 64.8704 91.517L64.1227 93.9706L64.082 94.1011L63.8275 93.9653C63.1101 93.5756 62.3438 93.2831 61.5488 93.0957C60.305 92.8165 59.0223 92.7532 57.757 92.9087C56.6028 93.0684 55.4816 93.4108 54.4354 93.9229C53.9245 94.1611 53.426 94.5262 52.8993 94.7149C52.3765 94.889 51.8366 95.0073 51.2888 95.0677C50.7753 95.1313 50.2576 95.1561 49.7403 95.1418C49.2251 95.1215 48.7125 95.0589 48.2077 94.9548C47.7189 94.8589 47.2439 94.703 46.7935 94.4909L46.7086 94.4521L46.6591 94.4274L46.8005 93.3691C47.2319 90.628 47.6567 87.871 48.0751 85.0982C48.4781 82.4435 48.8741 79.7889 49.2595 77.1607C49.3708 77.0778 49.484 77.0037 49.5971 76.9279C49.6112 77.39 49.6183 77.861 49.6236 78.339C49.6236 79.7854 49.5688 81.1612 49.4663 82.47C49.7263 81.1138 49.9034 79.7431 49.9966 78.3654C50.0426 77.7357 50.0691 77.1184 50.0709 76.5275C53.8344 73.236 57.6863 69.6306 61.5612 65.6831C63.3944 63.8222 67.0854 59.8622 67.1137 59.8305C67.1385 59.8552 70.826 63.8151 72.668 65.6831C76.557 69.6306 80.4089 73.236 84.1583 76.5275C84.1725 77.1184 84.1954 77.7357 84.2379 78.3654C84.331 79.7431 84.5081 81.1138 84.7682 82.47C84.6604 81.1647 84.6038 79.7854 84.6109 78.339C84.6109 77.8557 84.6232 77.3847 84.6338 76.9279C84.6588 76.9419 84.683 76.9572 84.7063 76.9737C84.7965 77.0337 84.8831 77.0954 84.9768 77.1607C84.9768 77.1977 84.9892 77.2401 84.9945 77.2771C85.3728 79.8736 85.7605 82.4823 86.1576 85.1035C86.5748 87.8751 86.9991 90.6321 87.4304 93.3744L87.7097 95.3817C87.5948 95.3887 87.4622 95.4134 87.3367 95.4311ZM76.9777 89.0634C77.1899 88.9876 77.4285 88.9047 77.7007 88.8147C78.6436 88.4861 79.6386 88.3313 80.637 88.3579C81.2663 88.3808 82.0246 88.5607 82.2527 88.9876C82.3018 89.0717 82.3314 89.1658 82.3394 89.2628C82.3473 89.3599 82.3334 89.4575 82.2987 89.5485C82.2471 89.6896 82.1681 89.8192 82.0662 89.9297C81.9642 90.0402 81.8414 90.1294 81.7047 90.1923C80.317 90.8344 78.7137 90.0918 77.1846 89.1851L76.9777 89.0634ZM62.765 75.3509C63.1981 75.4162 63.5269 75.6473 63.4969 75.8678C63.4668 76.0882 63.0885 76.2205 62.6484 76.1623C62.2082 76.1041 61.8882 75.8642 61.9201 75.642C61.9519 75.4197 62.3266 75.291 62.765 75.3509ZM61.5276 74.559C61.4085 74.5273 61.2976 74.4704 61.2024 74.3922C61.1072 74.314 61.03 74.2163 60.9761 74.1056C60.9212 74.0046 60.8939 73.8909 60.897 73.7761C60.9001 73.6612 60.9335 73.5492 60.9938 73.4512C60.9938 73.4936 60.9938 73.5394 60.9938 73.5606C60.9938 73.5818 61.015 73.6259 61.0256 73.6576C61.0428 73.7201 61.0697 73.7796 61.1051 73.834C61.1635 73.9288 61.2407 74.0106 61.332 74.0744C61.4234 74.1382 61.5269 74.1825 61.6362 74.2047C61.7454 74.2269 61.8581 74.2264 61.9671 74.2033C62.0762 74.1802 62.1793 74.1349 62.2701 74.0704C62.3192 74.0366 62.3664 74.0001 62.4115 73.961C62.4554 73.9231 62.4957 73.8812 62.5317 73.8358C62.5375 73.951 62.5132 74.0657 62.4611 74.1687C62.409 74.2716 62.331 74.3593 62.2347 74.4231C62.1349 74.4977 62.0193 74.5487 61.8968 74.5722C61.7743 74.5957 61.6481 74.5912 61.5276 74.559V74.559ZM102.529 92.025L103.579 92.9934L102.529 92.025ZM104.328 93.6813L106.66 95.8279L104.328 93.6813Z" fill="#7CAEB1"></path> <path d="M98.2354 99.5965C97.7537 99.3423 97.245 99.1429 96.7187 99.002H96.7523C95.9625 98.7362 95.1356 98.5969 94.3022 98.5893C91.8273 98.547 89.6601 99.5771 87.3479 100.29C86.0945 100.676 84.7475 100.404 83.3916 99.8628C82.7146 99.5947 82.0305 99.2737 81.3287 98.9403C80.1248 98.367 78.9935 97.8308 77.6518 97.6968C76.1496 97.5712 74.6385 97.7877 73.2324 98.33L73.1882 98.3459L73.1228 98.3794C72.1858 98.8444 71.2135 99.2348 70.2149 99.5471C68.2509 100.133 66.4266 99.9175 64.5581 99.0885C62.2229 98.0513 60.0291 97.344 57.4606 97.8538C56.3039 98.0963 55.1737 98.4507 54.0859 98.9121C52.2811 99.6564 50.4373 100.884 48.4291 100.117C47.4183 99.5788 46.3588 99.137 45.2649 98.7974C44.1317 98.4407 42.9543 98.243 41.7665 98.2101C40.5821 98.1847 39.4019 98.3582 38.2752 98.7233C37.177 99.0952 36.1452 99.6395 35.2188 100.336C34.9211 100.496 34.5951 100.597 34.2589 100.634C33.9032 100.679 33.5419 100.649 33.1982 100.547C33.5277 100.713 33.8901 100.802 34.2589 100.81C34.4457 100.816 34.6326 100.806 34.8175 100.778C35.0087 100.753 35.1963 100.705 35.3761 100.635L35.392 100.625C36.3537 100.086 37.3921 99.6961 38.4714 99.4695C39.5262 99.2478 40.6108 99.2049 41.6799 99.3425C42.7441 99.4844 43.7853 99.7643 44.777 100.175C45.9225 100.634 46.9283 101.353 48.065 101.815C50.4373 102.779 52.6134 101.674 54.8337 100.863C56.047 100.396 57.3145 100.085 58.6061 99.9351C60.4534 99.7588 61.9506 100.496 63.5823 101.244C63.8439 101.362 64.1126 101.48 64.3813 101.597C64.65 101.713 64.924 101.819 65.2457 101.925C65.868 102.13 66.5146 102.254 67.169 102.292C69.0322 102.429 70.8672 101.918 72.5695 101.202C74.7226 100.293 76.7096 99.4607 79.0819 100.29C81.1201 100.995 83.0346 102.114 85.2283 102.276C87.7368 102.461 89.897 100.898 92.1897 100.159C92.889 99.9321 93.61 99.7779 94.3411 99.6988C95.0681 99.626 95.8021 99.6695 96.5154 99.8275H96.5507C97.0329 99.9085 97.5063 100.034 97.9649 100.203C98.4422 100.371 98.9178 100.568 99.4004 100.761C99.8827 100.963 100.375 101.139 100.876 101.29C101.376 101.443 101.894 101.531 102.416 101.554C101.396 101.343 100.5 100.838 99.6036 100.341C99.1564 100.096 98.7074 99.8346 98.2354 99.5965Z" fill="#7CAEB1"></path> <path d="M96.7071 104.548C97.3515 104.678 97.9794 104.88 98.5792 105.149C98.0311 104.763 97.4373 104.445 96.8114 104.204C96.171 103.964 95.5038 103.802 94.8245 103.722C94.1408 103.644 93.451 103.633 92.7651 103.689C91.2837 103.81 89.9367 104.348 88.5543 104.856C86.8414 105.486 85.3069 105.421 83.5905 104.839C81.874 104.256 80.2459 103.376 78.464 102.941C76.5672 102.475 74.7093 102.801 72.915 103.517C72.1691 103.816 71.4584 104.239 70.6895 104.472C69.876 104.712 69.0285 104.816 68.181 104.78C67.5868 104.761 66.9954 104.691 66.4133 104.57C66.1163 104.519 65.8193 104.435 65.5206 104.366C65.2218 104.297 64.9284 104.2 64.6367 104.101C63.3374 103.703 62.1212 102.999 60.7812 102.745C59.0718 102.422 57.3165 102.78 55.6848 103.304C54.0939 103.817 52.5541 104.699 50.8713 104.891C50.2829 104.954 49.6889 104.942 49.1035 104.856C48.0137 104.683 46.9489 104.379 45.9322 103.951C44.6947 103.456 43.7932 103.004 42.4232 103.119C42.0735 103.148 41.727 103.207 41.3873 103.295C41.0554 103.385 40.7295 103.495 40.4115 103.625C40.0968 103.75 39.7946 103.886 39.4958 104.032C38.8965 104.325 38.2955 104.609 37.7051 104.914C38.3485 104.738 38.9814 104.553 39.6178 104.375C40.2335 104.173 40.8668 104.03 41.5093 103.946C42.3631 103.853 43.3619 103.853 44.1114 104.308C44.3978 104.484 44.6894 104.652 44.9829 104.817C46.1813 105.518 47.4727 106.045 48.8189 106.386C51.6809 107.054 54.2088 105.805 56.9222 105.151C57.914 104.913 58.9675 104.724 59.9858 104.883C61.3558 105.096 62.6179 105.86 63.9119 106.331C64.239 106.451 64.5819 106.539 64.9178 106.641C65.2536 106.744 65.6019 106.818 65.9554 106.888C66.6664 107.04 67.3892 107.129 68.1156 107.156C69.6266 107.221 71.1314 106.927 72.5067 106.299C74.7517 105.25 76.7776 104.535 79.2577 105.362C79.857 105.551 80.4651 105.777 81.0962 106.001C81.7273 106.225 82.3725 106.442 83.0407 106.629C83.734 106.823 84.4443 106.951 85.162 107.01C87.4424 107.186 89.1111 106.02 91.1087 105.181C91.6878 104.937 92.2885 104.747 92.903 104.615C93.5269 104.484 94.1609 104.408 94.798 104.387C95.4385 104.364 96.0796 104.417 96.7071 104.548V104.548Z" fill="#7CAEB1"></path> <defs> <linearGradient id="paint0_linear_404_12" x1="67.9929" y1="-15.5239" x2="67.9929" y2="136.072" gradientUnits="userSpaceOnUse"> <stop stop-color="white"></stop> <stop offset="0.690115" stop-color="white" stop-opacity="0.1"></stop> </linearGradient> </defs> </svg> 